<?xml version="1.0" encoding="UTF-8" standalone="no"?>
<svg
   xmlns:ooo="http://xml.openoffice.org/svg/export"
   xmlns:dc="http://purl.org/dc/elements/1.1/"
   xmlns:cc="http://creativecommons.org/ns#"
   xmlns:rdf="http://www.w3.org/1999/02/22-rdf-syntax-ns#"
   xmlns:svg="http://www.w3.org/2000/svg"
   xmlns="http://www.w3.org/2000/svg"
   xmlns:sodipodi="http://sodipodi.sourceforge.net/DTD/sodipodi-0.dtd"
   xmlns:inkscape="http://www.inkscape.org/namespaces/inkscape"
   version="1.2"
   width="200"
   height="200"
   viewBox="0 0 11288.889 11288.889"
   preserveAspectRatio="xMidYMid"
   xml:space="preserve"
   id="svg108"
   sodipodi:docname="quetzal-crumbs-fa-white (copy).svg"
   inkscape:version="0.92.5 (2060ec1f9f, 2020-04-08)"
   style="fill-rule:evenodd;stroke-width:28.22200012;stroke-linejoin:round"><metadata
   id="metadata112"><rdf:RDF><cc:Work
       rdf:about=""><dc:format>image/svg+xml</dc:format><dc:type
         rdf:resource="http://purl.org/dc/dcmitype/StillImage" /><dc:title></dc:title></cc:Work></rdf:RDF></metadata><sodipodi:namedview
   pagecolor="#ffffff"
   bordercolor="#FFFFFF"
   borderopacity="1"
   objecttolerance="10"
   gridtolerance="10"
   guidetolerance="10"
   inkscape:pageopacity="0"
   inkscape:pageshadow="2"
   inkscape:window-width="1848"
   inkscape:window-height="1016"
   id="namedview110"
   showgrid="false"
   inkscape:zoom="2.4583334"
   inkscape:cx="94.129312"
   inkscape:cy="86.842869"
   inkscape:window-x="72"
   inkscape:window-y="27"
   inkscape:window-maximized="1"
   inkscape:current-layer="svg108"
   inkscape:pagecheckerboard="true" />
 <defs
   class="ClipPathGroup"
   id="defs8">
  <clipPath
   id="presentation_clip_path"
   clipPathUnits="userSpaceOnUse">
   <rect
   x="0"
   y="0"
   width="10160"
   height="10160"
   id="rect2" />
  </clipPath>
  <clipPath
   id="presentation_clip_path_shrink"
   clipPathUnits="userSpaceOnUse">
   <rect
   x="10"
   y="10"
   width="10140"
   height="10140"
   id="rect5" />
  </clipPath>
























































       </defs>
 <defs
   class="TextShapeIndex"
   id="defs12">
  <g
   ooo:slide="id1"
   ooo:id-list="id3 id4 id5 id6 id7 id8 id9"
   id="g10" />
 </defs>
 <defs
   class="EmbeddedBulletChars"
   id="defs44">
  <g
   id="bullet-char-template-57356"
   transform="matrix(4.8828125e-4,0,0,-4.8828125e-4,0,0)">
   <path
   d="M 580,1141 1163,571 580,0 -4,571 Z"
   id="path14"
   inkscape:connector-curvature="0" />
  </g>
  <g
   id="bullet-char-template-57354"
   transform="matrix(4.8828125e-4,0,0,-4.8828125e-4,0,0)">
   <path
   d="M 8,1128 H 1137 V 0 H 8 Z"
   id="path17"
   inkscape:connector-curvature="0" />
  </g>
  <g
   id="bullet-char-template-10146"
   transform="matrix(4.8828125e-4,0,0,-4.8828125e-4,0,0)">
   <path
   d="M 174,0 602,739 174,1481 1456,739 Z M 1358,739 309,1346 659,739 Z"
   id="path20"
   inkscape:connector-curvature="0" />
  </g>
  <g
   id="bullet-char-template-10132"
   transform="matrix(4.8828125e-4,0,0,-4.8828125e-4,0,0)">
   <path
   d="M 2015,739 1276,0 H 717 l 543,543 H 174 v 393 h 1086 l -543,545 h 557 z"
   id="path23"
   inkscape:connector-curvature="0" />
  </g>
  <g
   id="bullet-char-template-10007"
   transform="matrix(4.8828125e-4,0,0,-4.8828125e-4,0,0)">
   <path
   d="m 0,-2 c -7,16 -16,29 -25,39 l 381,530 c -94,256 -141,385 -141,387 0,25 13,38 40,38 9,0 21,-2 34,-5 21,4 42,12 65,25 l 27,-13 111,-251 280,301 64,-25 24,25 c 21,-10 41,-24 62,-43 C 886,937 835,863 770,784 769,783 710,716 594,584 L 774,223 c 0,-27 -21,-55 -63,-84 l 16,-20 C 717,90 699,76 672,76 641,76 570,178 457,381 L 164,-76 c -22,-34 -53,-51 -92,-51 -42,0 -63,17 -64,51 -7,9 -10,24 -10,44 0,9 1,19 2,30 z"
   id="path26"
   inkscape:connector-curvature="0" />
  </g>
  <g
   id="bullet-char-template-10004"
   transform="matrix(4.8828125e-4,0,0,-4.8828125e-4,0,0)">
   <path
   d="M 285,-33 C 182,-33 111,30 74,156 52,228 41,333 41,471 c 0,78 14,145 41,201 34,71 87,106 158,106 53,0 88,-31 106,-94 l 23,-176 c 8,-64 28,-97 59,-98 l 735,706 c 11,11 33,17 66,17 42,0 63,-15 63,-46 V 965 c 0,-36 -10,-64 -30,-84 L 442,47 C 390,-6 338,-33 285,-33 Z"
   id="path29"
   inkscape:connector-curvature="0" />
  </g>
  <g
   id="bullet-char-template-9679"
   transform="matrix(4.8828125e-4,0,0,-4.8828125e-4,0,0)">
   <path
   d="M 813,0 C 632,0 489,54 383,161 276,268 223,411 223,592 c 0,181 53,324 160,431 106,107 249,161 430,161 179,0 323,-54 432,-161 108,-107 162,-251 162,-431 0,-180 -54,-324 -162,-431 C 1136,54 992,0 813,0 Z"
   id="path32"
   inkscape:connector-curvature="0" />
  </g>
  <g
   id="bullet-char-template-8226"
   transform="matrix(4.8828125e-4,0,0,-4.8828125e-4,0,0)">
   <path
   d="m 346,457 c -73,0 -137,26 -191,78 -54,51 -81,114 -81,188 0,73 27,136 81,188 54,52 118,78 191,78 73,0 134,-26 185,-79 51,-51 77,-114 77,-187 0,-75 -25,-137 -76,-188 -50,-52 -112,-78 -186,-78 z"
   id="path35"
   inkscape:connector-curvature="0" />
  </g>
  <g
   id="bullet-char-template-8211"
   transform="matrix(4.8828125e-4,0,0,-4.8828125e-4,0,0)">
   <path
   d="M -4,459 H 1135 V 606 H -4 Z"
   id="path38"
   inkscape:connector-curvature="0" />
  </g>
  <g
   id="bullet-char-template-61548"
   transform="matrix(4.8828125e-4,0,0,-4.8828125e-4,0,0)">
   <path
   d="m 173,740 c 0,163 58,303 173,419 116,115 255,173 419,173 163,0 302,-58 418,-173 116,-116 174,-256 174,-419 0,-163 -58,-303 -174,-418 C 1067,206 928,148 765,148 601,148 462,206 346,322 231,437 173,577 173,740 Z"
   id="path41"
   inkscape:connector-curvature="0" />
  </g>
 </defs>

 <path
   style="fill:#ffffff;stroke:none;stroke-width:28.22200012"
   d="m 6123.0151,144.1475 -76.0677,72.9809 -112.007,0.9922 v 104.0695 l -76.9497,76.9496 75.9575,72.9809 0.9923,107.046 h 108.0382 l 80.0365,74.9653 75.9574,-73.9731 112.0069,-0.9923 V 475.0971 l 77.9418,-75.9575 -76.9495,-73.9731 -0.9935,-107.046 h -108.0381 z m -3197.0486,199.9809 -75.9575,72.9809 -112.0069,0.9923 v 104.0695 l -77.0599,76.9496 76.0676,72.9809 0.9923,107.046 h 107.928 l 80.0364,74.9653 75.9575,-73.9731 112.0069,-0.9923 V 675.1883 l 78.0521,-76.0677 -77.0599,-73.9731 -0.9923,-107.046 h -107.9279 z m 5097.9697,199.9809 -75.9573,72.981 -112.0073,1.1023 v 103.9592 l -76.9495,76.9497 75.9572,73.0911 0.9935,106.9358 h 108.038 l 79.9265,74.9651 76.0673,-73.973 112.0073,-0.9923 V 875.169 l 77.9418,-76.0677 -76.9495,-73.9731 -0.9935,-106.9357 h -108.038 z m -3599.9871,700.0433 -75.9575,72.9809 -112.0069,0.9923 v 104.0694 l -77.0599,76.9497 76.0677,72.9809 0.9923,107.046 h 108.0382 l 79.9262,74.9653 76.0677,-73.9731 112.0069,-0.9923 v -104.0694 l 77.9419,-75.9575 -76.9496,-73.9731 -0.9923,-107.046 h -108.0382 z m -1098.0208,399.9618 -75.9575,72.9809 -112.0069,1.1024 v 103.9593 l -76.9497,76.9496 75.9575,73.0912 0.9923,106.9357 h 108.0382 l 79.9262,74.9653 76.0677,-73.9731 112.007,-0.9923 v -103.9592 l 77.9418,-76.0677 -76.9497,-73.9731 -0.9922,-106.9358 h -108.0383 z m 3198.0408,199.9809 -75.9573,73.0912 -112.0072,0.9923 v 103.9592 l -77.0597,77.0599 76.0674,72.9809 0.9934,106.9357 h 107.928 l 80.0365,75.0755 75.9573,-74.0833 112.0072,-0.9923 v -103.9592 l 78.052,-75.9574 -77.0597,-74.0834 -0.9934,-106.9357 h -107.928 z m -4033.0217,489.0382 c -156,319 -228.9861,526.0365 -537.9861,588.0365 -19,17 -32.0183,28.9236 -40.0183,37.9236 34,-145 -16.9687,-288.9583 -130.9687,-343.9584 -137,-65.9999 -317.9618,20.0591 -399.9618,190.0591 82,-56 191.9965,-98.0573 324.9965,-35.0573 120,57 160.9792,154.9522 171.9792,245.9523 -4.9998,9 -13.9939,21.0338 -28.9939,38.0338 -380,431 -354.0677,1114.0078 50.9322,1523.0078 16,17 33.0426,33.0582 51.0426,49.0581 30,26 57.0442,49.981 79.0443,72.981 143.9999,145.9999 128.9809,240.0052 -181.0191,465.0051 -16.0001,13 -14.0391,29.9558 4.9609,47.9558 56,58 276.0677,128.0295 584.0677,95.0295 759,-63 669.9913,-304.0139 367.9913,-605.0138 -64,-65.0001 -139.0685,-131.9731 -217.0685,-200.9731 -4.0003,-4.0003 -8.0087,-8.0166 -13.0087,-12.0166 -228,-216 -456.9688,-741.052 -257.9688,-967.052 45,-51 492.9801,-348.9914 566.98,-621.9914 -224.9999,288 -237.0243,89.0834 -519.0242,201.0834 127.9999,-283 253.0234,-650.0634 124.0234,-768.0634 z m 6013.979,730.0295 c 9,169 231.0592,302.967 444.0591,610.967 -56.0002,85 -139.0097,107.0347 -408.0098,-74.9652 -105.9998,239.9999 557.0378,380.9322 602.0376,431.9323 52,58.9999 73.9575,138.1006 75.9573,227.1006 4.0019,259.0001 -174.0374,598.9601 -348.037,752.9601 -234.0001,206 -435.0038,397.9314 -437.0036,544.9312 -0.9991,130 155.0286,224.0636 589.0288,260.0638 355.9996,37.9996 594.0608,-60.0552 599.0607,-120.055 0,-7.9999 -3.0254,-15.9383 -11.0242,-21.9383 -190.0005,-137.9999 -268.9933,-227.019 -268.9933,-308.0191 0.999,-73 64.0102,-139.9592 168.0103,-230.9592 249.0001,-221 373.9681,-538.0607 370.9681,-853.0607 -1.9982,-234 -76.0217,-468.0174 -223.0216,-661.0174 -29,-92 -35.0356,-206.98 60.9645,-312.98 98.9996,-109 217.0819,-110.9505 314.0827,-90.9505 -140.0007,-127 -339.0831,-137.0252 -441.0827,-25.0252 -83.0004,92 -77.9058,239.9436 2.0941,359.9436 -187.9995,-133 -261.9988,-217.941 -366.999,-190.941 -367.9997,113 -164.0919,80.0131 -722.092,-297.987 z m -2415.9765,105.9436 -75.9574,73.0911 -112.007,0.9923 v 103.9592 l -77.0598,76.9497 76.0677,73.0911 0.9923,106.9358 h 108.0381 l 79.9263,74.9653 76.0677,-73.9731 112.007,-0.9923 v -103.9591 l 77.9418,-76.0678 -76.9496,-73.9731 -0.9934,-106.9357 h -108.0382 z m -399.9617,1204.0746 c -367.0001,113 -94.0461,287.0087 -615.0461,902.0087 -110.9999,9 -206.9679,65.9627 -243.9678,159.9627 -56,141.0002 41.9505,313.9764 217.9505,383.9766 -62,-76.9999 -111.9879,-184.0276 -57.9879,-321.0278 21,-53 50.0052,-91.9445 84.0052,-119.9445 37,246.0002 242.994,397.9565 282.994,442.9568 203,231.0001 188.0208,521.0449 -44.9792,728.0447 -441,389.0005 -768.9748,728.9953 152.0252,804.9949 166,18.0001 306.9939,6.0305 409.9939,-17.9696 147,-35.0001 218.0347,-93.0233 179.0347,-124.0232 -359,-261.0002 -322.0929,-344.9782 -101.0928,-538.9784 452.9997,-402.0001 235.0451,-727.0806 -160.9549,-1175.0807 -201,-140 371.0399,-892.967 263.0399,-864.967 -168,309 -308.0746,394.9635 -442.0747,427.9635 -4.0002,-170 22.0599,-392.9167 77.06,-687.9167 z m -2060.0018,235.9202 -28.0017,67.0278 -38.0339,76.0677 -42.9948,72.9809 -49.94,71.9887 -53.0269,67.0278 -58.9801,64.9331 -63.059,59.9722 -44.9792,38.0339 7.0556,159.9627 96.9036,116.0859 h 0.9923 l 77.0599,105.9434 0.9923,0.9935 55.0112,87.9737 v 1.1007 l 38.0339,71.9887 22.9305,55.0113 v 0.9934 l 7.0556,20.9465 v 0.9935 l 4.9609,16.9773 v 0.9934 l 2.9763,13.0082 v 0.9934 l 0.9923,9.0402 v 0.9934 l 0.9923,6.0633 v 1.9868 h -8.9297 l -10.0321,0.9934 v -1.9868 -5.0687 l -1.9846,-8.9295 -1.9846,-13.0088 -5.0709,-16.9773 -6.9453,-21.0566 -22.0487,-54.0191 -36.9314,-70.9964 -55.0112,-87.9737 -56.0035,-75.9577 -122.0391,215.9659 56.0035,56.9959 0.9923,0.9934 42.9948,50.0504 31.0885,41.892 v 1.1006 l 20.9462,33.9553 8.0477,14.0005 v 0.9934 l 4.9609,12.0165 3.9686,10.0324 v 0.9934 l 2.9763,7.9373 0.9923,7.0555 h 1.1024 l 0.9923,4.9615 v 0.9934 1.9868 0.9935 0.9934 h -9.0399 -10.0322 v -1.9869 -3.968 l -1.9846,-5.9532 -2.9763,-7.0556 -2.9763,-10.0318 -5.071,-11.9064 -6.9453,-13.0088 -21.0564,-33.0725 -29.9861,-42.0025 -42.9948,-48.9481 -50.9323,-53.0273 -56.0035,98.9985 -50.0503,98.9985 -28.994,60.9645 -6.9453,19.072 -4.0792,14.0005 -1.9846,3.968 v 2.9746 0.9935 1.9868 h -3.9686 l 0.9923,2.0941 4.9609,7.9378 h -0.9923 v 0.9934 h -0.9923 -0.9923 l -0.9923,0.9934 h -0.9923 -0.9923 v 0.9934 h -0.9923 -0.9923 -0.9923 -0.9923 -1.1023 v -0.9934 h -0.9923 -0.9923 v -0.9934 h -0.9923 -0.9923 v -0.9934 h -0.9923 -0.9923 v -0.9934 l -0.9923,-0.9935 v -0.9934 h -0.9923 v -0.9934 l -0.9923,-0.9934 v -0.9935 -0.9934 -0.9934 l -0.9923,-2.0941 v -0.9934 -2.9746 -0.9935 l 0.9923,-3.968 v -0.9934 l 0.9923,-5.0687 h 0.9923 l 3.9686,-14.0011 v -0.9934 l 8.0478,-19.9537 28.0017,-61.9568 0.9923,-1.1006 49.9401,-97.8956 h 0.9923 l 191.0512,-340.1 -9.0399,-13.0087 -96.9037,-115.9757 -129.0946,-72.9809 -31.9704,21.0564 -78.9341,43.987 -82.0208,40.0182 -84.0052,33.9549 -85.9896,28.9939 -88.0842,24.033 -89.9584,18.9618 -90.9505,14.0009 -92.0529,8.0477 -91.9427,1.9846 -93.0452,-1.9846 -92.0529,-8.0477 -19.954,-2.9763 -97.0139,113.9916 155.0017,300.9634 v 0.9934 l 44.9792,95.0299 27.0096,61.9568 v 1.1007 l 13.0086,36.931 v 0.9934 l 1.9846,10.0325 v 0.9934 l 0.9923,6.9455 v 1.1007 0.9934 1.9868 0.9934 1.9869 0.9934 h -0.9923 v 0.9934 0.9935 l -0.9923,0.9934 v 0.9934 h -0.9923 v 0.9934 h -0.9923 v 0.9934 h -0.9923 v 1.1007 h -0.9923 l -0.9923,0.9934 h -0.9922 -0.9923 -0.9923 -0.9923 -0.9923 -1.1024 -0.9923 l 2.0947,-9.0401 v -0.9934 -0.9935 h -1.1024 l -4.9609,-1.9868 v -0.9934 l -0.9923,-6.0633 -1.9846,-10.0324 -12.0165,-35.9388 -27.0095,-60.9645 -44.9792,-95.0298 -151.0329,-295.0103 -3.9686,3.968 -44.9792,-141.0007 -155.0017,129.9766 -103.0773,123.0314 -69.8941,96.0216 99.9905,183.9959 28.9939,57.9876 16.9774,38.034 4.9609,14.0004 h 0.9923 l 2.9764,8.9301 v 1.1007 l 1.1023,5.9532 v 0.9934 l 0.9923,2.9746 v 1.9869 0.9934 1.1006 0.9935 0.9934 0.9934 l -0.9923,0.9934 v 0.9935 0.9934 h -1.1023 v 0.9934 0.9934 h -0.9923 v 0.9934 h -0.9923 l -0.9923,0.9935 -0.9923,0.9934 h -0.9923 -0.9923 l -0.9923,0.9934 h -0.9923 -0.9923 -0.9923 -0.9923 v -0.9934 l 1.9846,-8.9295 v -0.9934 l -0.9923,-0.9935 h -2.9763 -3.0869 v -1.1006 -0.9935 l -0.9923,-1.9868 -0.9923,-4.9615 -2.9763,-9.0401 -4.9609,-12.0165 -17.0877,-37.9233 -28.9939,-57.9882 -94.9193,-174.0735 -51.0425,80.0365 -37.0416,70.9964 -21.9384,54.019 -7.0556,20.9465 -3.9686,16.9774 -2.9763,12.0165 -0.9923,10.0318 -0.9923,4.9615 v 0.9934 h -9.0399 -9.04 v -1.9868 -0.9934 -5.9532 l 2.0947,-10.0325 1.9846,-13.0087 0.9923,-0.9934 3.9686,-16.9774 0.9923,-0.9934 6.0634,-21.0566 0.9922,-0.9935 21.9384,-55.0113 h 0.9923 v -0.9934 l 37.0417,-70.9964 v -0.9934 l 56.0065,-87.9927 v -0.9934 l 77.9418,-106.0534 98.0061,-117.9605 -29.9861,-211.005 -55.0113,-21.9384 -81.9106,-40.0183 -78.052,-43.9869 -75.9575,-48.066 -20.0642,-15.9853 -153.0174,75.9575 -31.9705,55.0113 -28.9939,55.0113 -20.9462,44.9792 -13.0086,38.0338 -9.04,28.0017 -3.9687,18.9619 -0.9922,12.0165 -0.9922,4.0809 -9.0399,-0.9934 h -9.04 v -4.0809 -0.9934 l 1.9844,-12.0165 v -0.9934 l 4.079,-19.9537 v -0.9934 l 8.9297,-28.9883 v -0.9922 l 14.0008,-37.0417 v -0.9922 l 21.0565,-45.9714 28.9939,-56.0035 35.9393,-58.98 -23.9228,-228.0929 -49.0582,-53.9088 -54.0191,-67.0278 -48.9479,-71.9887 -43.987,-72.981 -11.0243,-22.0486 -33.95484,79.0443 -2.09459,3.9686 -38.9158,105.9437 -1.98436,4.0792 -33.07292,107.9279 -0.99218,4.0793 -27.00955,110.9045 -0.99218,4.0792 -21.93837,112.0069 -0.99218,3.9686 -14.99306,113.9913 v 3.9686 l -10.03211,114.9836 v 5.0688 l -2.97654,115.9758 v 1.9868 1.9869 l 2.97654,116.0859 v 3.968 l 10.03211,115.9759 v 3.968 l 14.99306,113.9918 0.99218,4.0809 21.93837,112.0073 0.99218,4.9614 27.00955,110.0227 0.99218,3.968 33.07292,108.0381 1.98436,4.9614 38.9158,104.9517 2.09459,4.0809 44.97914,102.9671 0.9922,3.9681 51.0425,98.9984 0.9922,3.0876 0.9922,0.9934 55.0113,93.9269 1.9844,4.081 59.9722,88.9666 2.9763,3.968 65.0434,84.9974 2.9769,2.9747 69.0121,79.0442 2.9763,3.968 72.981,72.981 4.0792,4.0809 76.9496,67.0278 3.9686,3.9681 81.0287,60.9645 4.9609,2.9746 83.013,55.0113 4.0792,1.9869 0.9923,0.9934 86.9817,48.0658 4.9609,1.9869 87.974,41.0102 6.0634,1.9869 89.9583,33.9547 6.0634,2.0941 91.9427,25.9069 h 0.9923 l 0.9923,1.1006 h 1.9846 0.9922 l 94.0374,18.962 0.9923,0.9934 h 0.9923 1.9846 0.9923 l 95.0294,11.0242 0.9923,0.9934 h 1.9846 0.9923 2.0947 l 94.9192,3.968 h 3.087 2.9763 l 95.0295,-3.968 h 0.9923 1.9846 0.9923 l 1.9845,-0.9934 95.0296,-11.0242 h 0.9923 1.9845 0.9923 l 0.9923,-0.9934 94.0373,-18.962 h 0.9923 1.9846 l 0.9923,-1.1006 h 0.9923 l 92.0529,-25.9069 5.9532,-2.0941 90.9505,-33.9547 5.0709,-1.9869 88.9662,-41.0102 3.9686,-1.9869 87.092,-48.0658 0.9923,-0.9934 3.9686,-1.9869 84.0052,-55.0113 3.9686,-2.9746 81.0287,-60.9645 3.9686,-3.9681 77.0599,-67.0278 3.9686,-4.0809 72.9808,-72.981 2.9764,-3.968 69.0121,-79.0442 2.9763,-2.9747 65.0434,-84.9974 2.9763,-3.968 59.9723,-88.9666 2.0946,-4.081 55.0113,-93.9269 0.9923,-0.9934 1.9846,-3.0876 49.94,-98.9984 1.9846,-3.9681 44.0972,-102.9671 1.9846,-4.0809 38.9158,-104.9517 2.0947,-4.9614 32.9627,-108.0381 0.9923,-3.968 28.0017,-110.0227 0.9923,-4.9614 21.0564,-112.0073 0.9923,-4.0809 14.993,-113.9918 v -3.968 l 9.9219,-115.9759 v -3.968 l 3.0869,-116.0859 -75.0755,-1.9869 75.0755,-1.9868 -3.0869,-115.9758 v -5.0688 l -9.9219,-114.9836 v -3.9686 l -14.993,-113.9913 -0.9923,-3.9686 -21.0564,-112.0069 -0.9923,-4.0792 -28.0017,-110.9045 -0.9923,-4.0793 -32.9627,-107.9279 -2.0947,-4.0792 -38.9158,-105.9437 -1.9846,-3.9686 -44.0972,-103.0772 -1.9846,-3.9686 z m 6800.0116,498.0781 -28.001,66.9176 -38.034,76.0677 -42.995,72.9809 -50.05,71.9887 -52.917,67.0277 -58.98,64.9331 -63.059,60.0828 -44.979,37.9234 6.945,160.073 97.014,115.9759 h 0.994 l 77.06,105.9434 0.993,1.1006 55.012,87.9738 v 0.9934 l 37.923,71.9887 23.041,55.0113 v 0.9934 l 7.055,20.946 v 0.9934 l 4.962,17.088 v 0.9934 l 2.974,13.0088 v 0.9934 l 0.994,8.9295 v 0.9934 l 0.993,6.0633 v 1.9868 h -8.93 l -10.032,0.9935 v -1.9869 -4.9614 l -1.987,-9.0396 -1.981,-13.0088 -5.074,-16.9779 -6.946,-21.056 -22.048,-54.0191 -36.932,-70.9969 -55.011,-87.9738 -56.003,-75.9572 -122.039,215.966 56.003,56.9959 0.993,0.9934 42.995,50.0504 30.979,42.0026 v 0.9934 l 21.056,33.9547 7.938,14.0011 v 0.9934 l 5.068,12.0165 3.968,10.0318 v 0.9935 l 2.975,8.0478 0.993,6.9455 h 0.994 l 1.1,4.9615 v 0.9934 2.0941 0.9934 0.9934 h -9.04 -10.032 v -1.9868 -4.081 l -1.986,-5.9531 -2.975,-7.0556 -2.975,-9.9218 -5.068,-12.0165 -6.946,-13.0087 -21.056,-32.963 -29.986,-42.0026 -42.995,-49.0581 -51.043,-53.0267 -55.8926,98.9984 -50.0505,98.998 -28.9938,61.0745 -7.0555,18.962 -3.9681,14.001 -1.9812,3.9681 v 3.0875 0.9934 1.9812 h -3.968 l 0.9934,1.9868 4.9615,7.9373 h -0.9935 v 1.1006 h -0.9934 -0.9934 l -0.9934,0.9935 h -0.9935 -0.9934 v 0.9934 h -0.9934 -0.9934 -1.1007 -0.9934 -0.9934 v -0.9934 h -0.9935 -0.9934 v -0.9935 h -0.9934 -0.9934 v -1.1006 h -0.9934 -0.9935 v -0.9935 l -0.9934,-0.9934 v -0.9934 h -0.9934 v -0.9934 l -0.9934,-0.9934 v -0.9935 -0.9934 -0.9934 l -0.9935,-1.9869 v -0.9934 -3.0875 -0.9934 l 0.9935,-3.9681 v -0.9934 l 0.9934,-4.9614 h 0.9934 l 3.9681,-14.0011 v -0.9934 l 8.0472,-20.0643 28.0021,-61.9563 0.9935,-0.9934 49.9397,-98.0062 h 0.9935 l 191.0516,-339.9897 -9.04,-13.0082 -97.014,-115.9758 -128.9848,-73.0911 -31.9701,21.0561 -79.0443,43.9871 -81.911,40.018 -84.0051,33.9553 -85.9892,28.9938 -88.0844,24.0329 -89.9583,18.962 -91.0607,14.0005 -91.9429,8.0478 -92.053,1.9869 -92.9347,-1.9869 -92.0529,-8.0478 -19.9543,-2.9747 -97.0139,113.9913 155.0021,301.0741 v 0.9934 l 44.9789,94.9192 27.0098,62.0669 v 0.9934 l 13.0087,36.9316 v 0.9935 l 1.9812,10.0318 v 0.9935 l 0.9935,7.0555 v 0.9934 0.9935 1.9868 0.9934 1.9869 0.9934 h -0.9935 v 0.9934 0.9934 l -0.9934,1.1007 v 0.9934 h -0.9934 v 0.9934 h -0.9934 v 0.9935 h -0.9934 v 0.9934 h -0.9935 l -0.9934,0.9934 h -0.9934 -0.9934 -0.9935 -1.1006 -0.9934 -0.9935 -0.9934 l 1.9869,-9.0396 v -0.9934 -0.9934 h -0.9935 l -4.9614,-1.9869 v -0.9934 l -0.9935,-6.0638 -1.9868,-9.9218 -12.0165,-36.0494 -27.0098,-60.9645 -44.9794,-95.0293 -151.0329,-295.0103 -3.9681,4.081 -44.9788,-141.0011 -155.0021,129.9769 -103.0772,122.9208 -70.0041,96.0221 99.9902,183.9954 29.1045,57.9882 16.9773,38.0334 4.9615,14.001 h 0.9934 l 2.9746,9.0401 v 0.9935 l 0.9935,5.9532 v 0.9934 l 1.1006,3.0875 v 1.9868 0.9935 0.9934 0.9934 0.9934 0.9934 l -1.1006,0.9935 v 0.9934 0.9934 h -0.9935 v 0.9934 0.9935 h -0.9934 v 0.9934 h -0.9934 l -0.9934,1.1006 -0.9934,0.9935 h -0.9935 -0.9934 l -0.9934,0.9934 h -0.9934 -0.9935 -0.9934 -0.9934 v -0.9934 l 1.9868,-9.0396 v -0.9934 l -0.9934,-0.9935 h -3.0875 -2.9746 v -0.9934 -0.9934 l -0.9934,-1.9868 -0.9935,-5.0688 -2.9746,-8.93 -4.9614,-12.0165 -17.088,-38.0339 -28.9938,-57.9877 -94.9193,-173.9634 -51.0427,79.9258 -37.0417,70.997 -21.9382,54.019 -7.0556,21.0561 -3.968,16.9779 -2.9746,12.0164 -0.9935,9.9218 -0.9934,5.0688 v 0.9934 h -9.0401 -9.0402 v -1.9869 -0.9934 -6.0632 l 1.9869,-10.0319 2.0941,-12.8987 0.9934,-1.1007 3.968,-16.9773 0.9934,-0.9935 5.9532,-20.9459 1.1007,-0.9934 21.9383,-55.0114 h 0.9934 v -0.9934 l 37.0417,-70.9964 v -0.9934 l 56.0036,-88.0838 v -0.9934 l 77.9418,-105.944 98.0057,-118.0699 -29.9861,-211.0052 -55.0114,-21.9388 -82.0205,-40.018 -77.9419,-43.9871 -76.0679,-48.0658 -19.9537,-15.9851 -153.0175,76.0673 -31.9707,55.0114 -28.9938,55.0113 -21.056,44.9794 -13.0088,37.9234 -8.9301,28.002 -3.968,19.0721 -0.9934,12.0164 -1.1007,3.9681 -8.9295,-0.9935 h -9.0401 v -3.968 -1.1007 l 1.9868,-11.9064 v -0.9934 l 4.0809,-20.0643 v -0.9934 l 8.9301,-28.9944 v -0.9934 l 14.0005,-37.0417 v -0.9934 l 21.0566,-45.9717 28.9938,-56.0031 35.9393,-58.9805 -23.9228,-227.9825 -49.0582,-54.019 -54.019,-67.0277 -48.948,-71.9887 -43.9866,-72.9809 -11.0242,-22.0486 -33.9553,79.0443 -2.0941,3.9686 -38.9156,106.0538 -2.0941,3.9686 -32.9624,108.0381 -0.9934,3.968 -27.0098,111.015 -0.9935,3.968 -21.9382,112.0072 -1.1007,3.9681 -14.9928,113.9912 v 4.081 l -9.9218,114.9835 v 4.9615 l -3.0875,115.9752 v 1.9869 2.0941 l 3.0875,115.9758 v 3.968 l 9.9218,115.9759 v 4.0809 l 14.9928,113.9918 1.1007,3.9681 21.9382,112.0066 0.9935,4.9615 27.0098,110.0226 0.9934,3.9681 32.9624,108.0386 2.0941,4.9615 38.9156,105.0617 2.0941,3.968 44.9795,102.9671 0.9934,4.081 50.9321,98.9984 0.9934,2.9747 1.1007,0.9934 54.9012,94.0376 2.0941,3.968 59.9722,88.966 2.9746,3.9681 65.0432,85.108 2.9747,2.9747 69.0117,78.9341 2.9747,4.081 72.9809,72.9804 3.9681,3.969 77.0596,67.027 3.9681,3.968 81.0282,60.965 4.9615,3.087 83.0134,55.012 3.9681,1.987 0.9934,0.993 87.0921,47.956 4.9614,1.987 87.9738,41.01 6.0632,1.987 89.9584,34.066 5.9532,1.981 92.053,26.017 h 0.9934 l 0.9934,0.994 h 1.9868 0.9935 l 94.0375,18.962 0.9935,0.993 h 0.9934 1.9868 0.9934 l 95.0293,11.025 0.9935,0.993 h 1.9868 0.9934 2.0941 l 94.9193,3.968 h 2.9746 3.0875 l 94.9192,-3.968 h 0.9935 2.094 0.9935 l 1.9868,-0.993 95.0293,-11.025 h 0.9934 1.9869 0.9934 l 0.9934,-0.993 94.0376,-18.962 h 0.9934 1.9812 l 0.9934,-0.994 h 0.9935 l 91.9423,-26.017 6.0638,-1.981 90.9501,-34.066 5.0744,-1.987 88.966,-41.01 3.968,-1.987 86.9821,-47.956 1.1006,-0.993 3.9681,-1.987 84.0051,-55.012 3.9681,-3.087 81.0284,-60.965 3.968,-3.968 77.06,-67.027 3.968,-3.969 72.981,-72.9804 2.975,-4.081 69.012,-78.9341 2.974,-2.9747 65.043,-85.108 2.975,-3.9681 59.972,-88.966 2.094,-3.968 54.902,-94.0376 0.993,-0.9934 2.094,-2.9747 49.94,-98.9984 1.987,-4.081 43.987,-102.9671 2.094,-3.968 38.916,-105.0617 1.981,-4.9615 33.074,-108.0386 0.993,-3.9681 28.002,-110.0226 0.993,-4.9615 20.947,-112.0066 0.993,-3.9681 15.103,-113.9918 v -4.0809 l 9.922,-115.9759 v -3.968 l 2.975,-115.9758 -74.966,-2.0941 74.966,-1.9869 -2.975,-115.9752 v -4.9615 l -9.922,-114.9835 v -4.081 l -15.103,-113.9912 -0.993,-3.9681 -20.947,-112.0072 -0.993,-3.968 -28.002,-111.015 -0.993,-3.968 -33.074,-108.0381 -1.981,-3.9686 -38.916,-106.0538 -2.094,-3.9686 -43.987,-102.9671 -1.987,-4.0792 z m -7702.0202,219.9349 -70.9965,28.9939 -67.0278,21.0565 23.0408,-5.071 39.026,-10.9141 32.9626,-12.0165 28.0018,-13.0087 z m 6800.0118,498.078 -70.9964,28.9938 -67.0278,20.9466 23.0412,-4.9615 38.9157,-11.0247 33.073,-12.0165 28.0015,-13.0082 z m -2697.9778,782.9465 -28.0021,67.0278 -38.034,75.9573 -42.9943,72.981 -50.0504,71.9887 -52.9166,67.0277 -59.0906,65.0432 -62.9485,59.9722 -44.9795,38.034 6.9455,159.9624 97.0139,115.9759 h 0.9934 l 77.0597,106.054 0.9934,0.9934 55.0113,87.9738 v 0.993 l 37.9233,71.989 23.0412,55.011 v 0.994 l 6.9449,21.056 v 0.993 l 5.0688,16.978 v 0.993 l 2.9746,13.009 v 0.993 l 0.9934,9.04 v 0.993 l 0.9934,5.953 v 1.987 h -8.9295 l -10.0324,0.994 v -1.987 -4.962 l -1.9869,-9.04 -1.9868,-13.009 -5.0687,-16.977 -6.9455,-20.946 -22.0489,-54.019 -36.931,-70.997 -55.0114,-87.9736 -56.0036,-76.0679 -122.0391,216.0765 56.0036,56.995 0.9935,0.994 42.9943,49.94 30.9784,42.003 v 0.993 l 21.0566,34.065 7.9372,14.001 v 0.993 l 5.0687,12.017 3.968,9.922 v 0.993 l 2.9747,8.048 0.9934,6.945 h 0.9934 l 0.9934,5.074 v 0.994 1.987 0.993 0.993 h -8.9295 -10.0324 v -1.986 -3.968 l -1.9869,-6.064 -2.9746,-6.945 -3.0875,-10.032 -4.9615,-12.017 -6.9449,-13.008 -21.0566,-32.963 -29.9861,-42.003 -42.9949,-49.058 -51.0427,-52.917 -56.003,98.999 -49.9404,98.998 -28.9938,60.964 -7.0555,18.962 -3.9681,14.001 -1.9868,4.081 v 2.975 0.993 1.987 h -3.9681 l 0.9934,1.987 4.9615,8.047 h -0.9934 v 0.994 h -0.9934 -0.9935 l -0.9934,0.993 h -0.9934 -0.9934 v 0.993 h -0.9934 -1.1007 -0.9934 -0.9935 -0.9934 v -0.993 h -0.9934 -0.9934 v -0.993 h -0.9934 -0.9935 v -0.994 h -0.9934 -0.9934 v -0.993 l -0.9934,-0.994 v -0.993 h -0.9935 v -0.994 l -0.9934,-1.1 v -0.994 -0.993 -0.993 l -0.9934,-1.987 v -0.994 -2.974 -0.994 l 0.9934,-4.081 v -0.993 l 0.9934,-4.962 h 0.9935 l 3.968,-14 v -1.005 l 8.0479,-19.955 28.0015,-62.066 0.9934,-0.993 49.9404,-98.006 h 0.9934 l 191.0514,-339.9902 -9.0401,-13.0087 -97.0139,-115.9753 -128.984,-72.9809 -31.9707,20.9459 -79.0443,43.9872 -82.0208,40.018 -83.895,34.0653 -86.0998,28.9938 -87.9739,23.9229 -89.9584,19.072 -91.0607,14.0005 -91.9428,7.9378 -92.0529,1.9868 -92.9349,-1.9868 -92.053,-7.9378 -19.9539,-3.0875 -97.0139,114.1013 155.0017,300.9637 v 0.993 l 44.9791,95.029 27.0096,61.957 v 0.994 l 13.0087,37.041 v 0.994 l 1.9846,10.032 v 0.993 l 0.9923,6.946 v 0.993 0.993 1.987 0.994 2.094 0.993 h -0.9923 v 0.994 0.993 l -0.9923,0.993 v 0.994 h -0.9923 v 0.993 h -0.9923 v 0.994 h -0.9923 v 0.993 h -0.9923 l -0.9923,0.994 h -0.9923 -1.1023 -0.9923 -0.9923 -0.9923 -0.9923 -0.9923 l 1.9846,-8.93 v -0.993 -1.101 h -0.9923 l -4.9609,-1.987 v -0.993 l -0.9923,-5.954 -1.9846,-10.031 -12.0164,-35.94 -27.0096,-61.074 -44.9792,-94.92 -151.0329,-295.01 -3.9686,3.968 -44.9792,-141.0008 -155.0017,129.9768 -103.0773,123.031 -70.0043,96.022 99.9904,183.995 28.994,57.988 17.0876,38.034 4.9609,13.891 h 0.9923 l 2.9763,9.04 v 0.993 l 0.9923,6.063 v 0.994 l 0.9923,2.974 v 1.981 0.994 0.993 0.994 0.993 0.994 l -0.9923,0.993 v 1.101 0.993 h -0.9923 v 0.994 0.993 h -0.9923 v 0.993 h -0.9923 l -0.9922,0.994 -0.9923,0.993 h -0.9923 -0.9923 l -0.9923,0.994 h -0.9923 -0.9923 -0.9923 -1.1024 v -0.994 l 2.0947,-9.04 v -0.993 l -0.9923,-0.994 h -3.0869 -2.9764 v -0.993 -0.994 l -0.9923,-1.981 -0.9922,-4.961 -2.9764,-9.04 -5.0709,-12.016 -16.9775,-38.034 -28.9939,-57.988 -95.0295,-173.963 -50.9323,80.036 -37.0417,70.997 -21.9384,53.908 -7.0555,21.057 -3.9686,16.977 -2.9763,12.016 -0.9923,10.033 -1.1024,4.961 v 0.994 h -8.9297 -9.0399 v -1.987 -0.994 -5.953 l 1.9846,-10.032 2.0947,-13.008 0.9923,-0.994 3.9686,-16.977 0.9923,-0.994 5.9531,-21.056 0.9923,-0.993 22.0486,-55.011 h 0.9923 v -1.011 l 37.0417,-70.997 v -0.993 l 56.0034,-87.974 v -0.993 l 77.9419,-106.054 98.006,-117.96 -29.9861,-211.0053 -55.0112,-22.0489 -82.0209,-40.0179 -77.9418,-43.9872 -76.0677,-47.9558 -19.954,-15.985 -153.0174,75.9573 -31.9704,55.0113 -28.994,55.0113 -21.0564,44.9789 -13.0087,38.0339 -8.9297,28.0021 -4.0792,18.9614 -0.9923,12.0165 -0.9923,3.968 -8.9297,-0.9934 h -9.0399 v -3.9681 -0.9934 l 1.9846,-12.0164 v -0.9935 l 3.9686,-20.0643 v -0.9934 l 9.04,-28.9938 v -0.9934 l 14.0008,-36.9311 v -0.9934 l 21.0564,-46.0818 28.9939,-56.0036 35.9393,-58.9799 -24.033,-227.9825 -48.9479,-54.0191 -54.0191,-67.0277 -48.9479,-71.9887 -43.987,-72.981 -11.0243,-21.9382 -34.0651,78.9336 -1.9846,3.968 -38.9158,106.0535 -2.0947,3.968 -32.9627,108.0381 -0.9923,3.968 -27.0095,111.0149 -0.9923,3.9681 -22.0486,112.0066 -0.9923,4.081 -14.9931,113.9912 v 3.9681 l -9.9219,114.9835 v 4.9615 l -3.0869,116.086 v 1.987 1.987 l 3.0869,115.976 v 3.968 l 9.9219,116.086 v 3.968 l 14.9931,113.991 0.9923,3.968 22.0486,112.007 0.9923,5.069 27.0095,109.913 0.9923,4.081 32.9627,107.928 2.0947,5.068 38.9158,104.951 1.9846,3.968 45.0894,103.078 0.9923,3.968 50.9323,98.998 0.9923,2.975 0.9922,0.993 55.0113,94.037 1.9846,3.968 60.0825,89.077 2.9763,3.968 65.0434,84.9967 2.9764,2.975 69.0121,79.044 2.9763,3.968 72.9809,72.981 3.9686,3.968 77.0599,67.028 3.9686,3.968 81.0286,61.075 4.9609,2.974 83.013,55.012 3.9686,1.987 0.9923,0.993 87.0921,48.066 4.9609,1.987 87.9739,41.011 6.0634,1.986 89.9583,33.955 5.9532,1.987 92.0529,26.018 h 0.9923 l 0.9923,0.993 h 1.9846 0.9923 l 94.0373,19.072 0.9923,0.993 h 0.9923 1.9845 0.9923 l 95.0296,10.914 0.9923,0.994 h 1.9845 0.9923 1.9846 l 95.0295,4.081 h 2.9764 3.0869 l 94.9193,-4.081 h 0.9923 2.0946 0.9923 l 1.9846,-0.994 94.9193,-10.914 h 1.1023 1.9846 0.9923 l 0.9923,-0.993 93.9271,-19.072 h 1.1024 1.9846 l 0.9922,-0.993 h 0.9923 l 91.9428,-26.018 6.0633,-1.987 90.9506,-33.955 5.0709,-1.986 88.9662,-41.011 3.9686,-1.987 86.9817,-48.066 0.9923,-0.993 4.0793,-1.987 84.0054,-55.012 3.968,-2.974 81.0289,-61.075 3.968,-3.968 76.9496,-67.028 4.0809,-3.968 72.9804,-72.981 2.9747,-3.968 69.0118,-79.044 2.9746,-2.975 65.0432,-84.9967 2.9746,-3.968 59.9722,-89.077 1.9812,-3.968 55.0113,-94.037 0.9934,-0.993 1.9869,-2.975 50.0504,-98.998 1.9869,-3.968 43.9871,-103.078 1.9869,-3.968 39.0256,-104.951 1.9869,-5.068 33.073,-107.928 0.9935,-4.081 28.0021,-109.913 0.9934,-5.069 20.9465,-112.007 0.9934,-3.968 14.9928,-113.991 v -3.968 l 10.0324,-116.086 v -3.968 l 2.9747,-115.976 -74.965,-1.987 74.965,-1.987 -2.9747,-116.086 v -4.9615 l -10.0324,-114.9835 v -3.9681 l -14.9928,-113.9912 -0.9934,-4.081 -20.9465,-112.0066 -0.9934,-3.9681 -28.0021,-111.0149 -0.9935,-3.968 -33.073,-108.0381 -1.9869,-3.968 -39.0256,-106.0535 -1.9869,-3.968 -43.9871,-102.9666 -1.9869,-3.968 z m -5719.0791,516.0473 -70.0044,201.9656 273.0721,-136.0402 z m 2652.9991,35.9393 -363.9124,16.9774 265.9063,279.0252 z m -2271.0069,80.0366 -216.9584,339.9892 579.9887,-137.032 z m 4435.078,85.9897 -70.9965,28.9938 -67.0278,20.946 23.0408,-4.9615 38.9158,-11.0242 33.0729,-12.0164 28.0017,-12.8987 z m -2878.9974,97.0139 -585.0598,171.9786 558.0503,265.025 z m 177.9323,43.9871 -69.0121,201.9645 273.072,-135.929 z m 4684.0071,155.0015 -70.0046,201.965 273.072,-135.93 z m 2652.9991,35.939 -364.023,17.088 266.017,278.915 z m -2271.0074,80.037 -216.9577,339.989 579.9886,-136.922 z m 1556.0808,183.003 -585.0597,171.979 558.0505,265.024 z m 177.9326,43.987 -69.0123,202.076 273.0723,-136.04 z m -5715.9922,1157.9937 -70.0043,202.075 273.072,-136.04 z m 2652.9989,36.049 -364.0226,16.977 266.017,279.025 z m -2271.0067,79.926 -216.9584,340.1 579.9888,-137.032 z m 1555.9702,183.003 -584.9494,172.09 558.0503,264.914 z m 178.0427,44.098 -69.0118,201.965 273.072,-136.04 z"
   id="path53"
   inkscape:connector-curvature="0" />

<g
   aria-label="Quetzal-CRUMBS"
   style="font-style:normal;font-weight:normal;font-size:2257.77783203px;line-height:1.25;font-family:sans-serif;letter-spacing:0px;word-spacing:0px;fill:#000000;fill-opacity:1;stroke:none;stroke-width:1592.97509766"
   id="text36"><path
     d="m 1384.4498,10709.751 q 28.8101,-34.984 42.7008,-82.315 13.8906,-47.845 13.8906,-112.154 0,-68.938 -15.9485,-117.298 -15.9485,-48.36 -41.6719,-78.199 -26.2378,-30.869 -60.7071,-44.759 -33.9549,-13.891 -70.9966,-13.891 -37.5561,0 -70.9965,13.376 -32.9259,13.377 -60.7072,44.245 -25.7234,28.81 -42.1863,79.742 -15.9485,50.418 -15.9485,117.299 0,68.424 15.434,116.784 15.9485,47.845 41.6719,78.199 25.7234,30.353 60.1927,44.759 34.4693,14.405 72.5399,14.405 38.0706,0 72.54,-14.405 34.4693,-14.92 60.1927,-45.788 z m 21.0931,179.549 q 2.0579,50.932 27.7813,73.055 25.7234,22.122 87.9739,22.122 21.0932,0 49.9034,-7.203 28.8102,-7.202 40.1285,-12.862 h 19.5497 v 135.82 q -28.8101,6.688 -62.765,11.833 -33.4404,5.144 -102.8935,5.144 -61.2217,0 -107.0093,-15.434 -45.2731,-14.919 -75.6267,-42.701 -29.8391,-27.266 -44.7587,-64.308 -14.9196,-37.042 -17.4919,-82.315 -171.8322,-9.775 -268.03762,-114.726 -95.69097,-105.466 -95.69097,-281.928 0,-184.694 104.95139,-291.703 104.9514,-107.524 289.6453,-107.524 184.1794,0 289.6452,107.524 105.4659,107.009 105.4659,291.703 0,136.334 -61.7361,235.626 -61.7362,98.778 -179.0348,137.877 z"
     style="font-style:normal;font-variant:normal;font-weight:bold;font-stretch:normal;font-size:1053.62963867px;font-family:Verdana;-inkscape-font-specification:'Verdana, Bold';font-variant-ligatures:normal;font-variant-caps:normal;font-variant-numeric:normal;font-feature-settings:normal;text-align:start;writing-mode:lr-tb;text-anchor:start;fill:#ffffff;stroke-width:1592.97509766"
     id="path98" /><path
     d="m 2362.4527,10898.561 h -185.2083 v -63.794 q -51.4468,39.099 -94.1476,59.678 -42.7008,20.064 -101.8646,20.064 -95.691,0 -147.6522,-55.048 -51.4468,-55.048 -51.4468,-162.572 v -376.076 h 186.2373 v 286.559 q 0,43.73 2.5723,73.054 3.0869,28.81 13.3762,47.846 9.7749,19.035 29.3247,27.781 20.0642,8.746 55.5625,8.746 23.6655,0 52.4757,-8.746 28.8101,-8.746 55.5625,-25.723 v -409.517 h 185.2083 z"
     style="font-style:normal;font-variant:normal;font-weight:bold;font-stretch:normal;font-size:1053.62963867px;font-family:Verdana;-inkscape-font-specification:'Verdana, Bold';font-variant-ligatures:normal;font-variant-caps:normal;font-variant-numeric:normal;font-feature-settings:normal;text-align:start;writing-mode:lr-tb;text-anchor:start;fill:#ffffff;stroke-width:1592.97509766"
     id="path100" /><path
     d="m 3106.3729,10643.899 h -423.9213 q 4.1157,67.91 51.4467,103.923 47.8455,36.012 140.4497,36.012 58.6493,0 113.6973,-21.093 55.0481,-21.093 86.9451,-45.273 h 20.5787 v 148.681 q -62.7651,25.209 -118.3276,36.527 -55.5625,11.319 -122.9577,11.319 -173.8901,0 -266.4943,-78.199 -92.6041,-78.2 -92.6041,-222.765 0,-143.022 87.4595,-226.366 87.9739,-83.858 240.7708,-83.858 140.9641,0 211.9607,71.511 70.9965,70.997 70.9965,204.758 z m -184.1794,-108.553 q -1.5434,-58.134 -28.8102,-87.459 -27.2668,-29.325 -84.8872,-29.325 -53.5046,0 -87.9739,27.782 -34.4693,27.781 -38.5851,89.002 z"
     style="font-style:normal;font-variant:normal;font-weight:bold;font-stretch:normal;font-size:1053.62963867px;font-family:Verdana;-inkscape-font-specification:'Verdana, Bold';font-variant-ligatures:normal;font-variant-caps:normal;font-variant-numeric:normal;font-feature-settings:normal;text-align:start;writing-mode:lr-tb;text-anchor:start;fill:#ffffff;stroke-width:1592.97509766"
     id="path102" /><path
     d="m 3606.4352,10893.416 q -29.8391,7.717 -63.2795,11.833 -33.4404,4.63 -81.8003,4.63 -108.0382,0 -161.0284,-43.73 -52.4757,-43.73 -52.4757,-149.71 v -270.095 h -76.1412 v -125.531 h 76.1412 v -165.144 h 185.2084 v 165.144 h 173.3755 v 125.531 h -173.3755 v 204.758 q 0,30.353 0.5144,52.99 0.5145,22.636 8.2315,40.643 7.2026,18.006 25.2089,28.81 18.5209,10.289 53.5047,10.289 14.405,0 37.5561,-6.173 23.6655,-6.174 32.9259,-11.319 h 15.434 z"
     style="font-style:normal;font-variant:normal;font-weight:bold;font-stretch:normal;font-size:1053.62963867px;font-family:Verdana;-inkscape-font-specification:'Verdana, Bold';font-variant-ligatures:normal;font-variant-caps:normal;font-variant-numeric:normal;font-feature-settings:normal;text-align:start;writing-mode:lr-tb;text-anchor:start;fill:#ffffff;stroke-width:1592.97509766"
     id="path104" /><path
     d="m 4215.5649,10898.561 h -542.7633 v -118.842 l 304.5648,-323.601 h -292.2176 v -135.305 h 524.757 v 116.785 l -299.9347,323.085 h 305.5938 z"
     style="font-style:normal;font-variant:normal;font-weight:bold;font-stretch:normal;font-size:1053.62963867px;font-family:Verdana;-inkscape-font-specification:'Verdana, Bold';font-variant-ligatures:normal;font-variant-caps:normal;font-variant-numeric:normal;font-feature-settings:normal;text-align:start;writing-mode:lr-tb;text-anchor:start;fill:#ffffff;stroke-width:1592.97509766"
     id="path106" /><path
     d="m 4695.5632,10747.822 v -120.386 q -37.5561,3.087 -81.2859,8.746 -43.7297,5.145 -66.3663,12.347 -27.7812,8.746 -42.7008,25.724 -14.4051,16.463 -14.4051,43.729 0,18.007 3.0868,29.325 3.0868,11.318 15.434,21.608 11.8328,10.289 28.2958,15.434 16.4629,4.63 51.4467,4.63 27.7813,0 56.077,-11.318 28.8102,-11.319 50.4178,-29.839 z m 0,89.517 q -14.9196,11.318 -37.0417,27.267 -22.1221,15.948 -41.6718,25.209 -27.2668,12.347 -56.5915,18.006 -29.3246,6.174 -64.3084,6.174 -82.3148,0 -137.8773,-50.933 -55.5625,-50.932 -55.5625,-130.16 0,-63.28 28.2957,-103.408 28.2957,-40.128 80.2569,-63.28 51.4468,-23.151 127.588,-32.925 76.1412,-9.775 157.9415,-14.406 v -3.086 q 0,-47.846 -39.0995,-65.852 -39.0995,-18.521 -115.2407,-18.521 -45.7877,0 -97.7489,16.463 -51.9612,15.948 -74.5978,24.694 h -16.9774 v -139.42 q 29.3246,-7.717 95.1765,-18.007 66.3663,-10.804 132.7326,-10.804 157.9416,0 227.9092,48.875 70.482,48.36 70.482,152.282 v 393.054 h -183.6649 z"
     style="font-style:normal;font-variant:normal;font-weight:bold;font-stretch:normal;font-size:1053.62963867px;font-family:Verdana;-inkscape-font-specification:'Verdana, Bold';font-variant-ligatures:normal;font-variant-caps:normal;font-variant-numeric:normal;font-feature-settings:normal;text-align:start;writing-mode:lr-tb;text-anchor:start;fill:#ffffff;stroke-width:1592.97509766"
     id="path108" /><path
     d="m 5234.7251,10898.561 h -185.2084 v -800.512 h 185.2084 z"
     style="font-style:normal;font-variant:normal;font-weight:bold;font-stretch:normal;font-size:1053.62963867px;font-family:Verdana;-inkscape-font-specification:'Verdana, Bold';font-variant-ligatures:normal;font-variant-caps:normal;font-variant-numeric:normal;font-feature-settings:normal;text-align:start;writing-mode:lr-tb;text-anchor:start;fill:#ffffff;stroke-width:1592.97509766"
     id="path110" /><path
     d="M 5771.3149,10632.066 H 5378.7761 V 10483.9 h 392.5388 z"
     style="font-style:normal;font-variant:normal;font-weight:bold;font-stretch:normal;font-size:1053.62963867px;font-family:Verdana;-inkscape-font-specification:'Verdana, Bold';font-variant-ligatures:normal;font-variant-caps:normal;font-variant-numeric:normal;font-feature-settings:normal;text-align:start;writing-mode:lr-tb;text-anchor:start;fill:#ffffff;stroke-width:1592.97509766"
     id="path112" /><path
     d="m 6271.8919,10913.48 q -85.4016,0 -157.9415,-25.209 -72.0255,-25.209 -123.9867,-75.112 -51.9613,-49.903 -80.7714,-124.501 -28.2958,-74.598 -28.2958,-172.347 0,-91.061 27.2668,-165.144 27.2668,-74.083 79.228,-127.073 49.9034,-50.933 123.4723,-78.714 74.0833,-27.781 161.5428,-27.781 48.3599,0 86.945,5.659 39.0995,5.145 72.0255,13.891 34.4693,9.774 62.2505,22.122 28.2958,11.832 49.3889,22.122 v 185.723 h -22.6365 q -14.4051,-12.348 -36.5272,-29.325 -21.6077,-16.978 -49.3889,-33.441 -28.2957,-16.462 -61.2217,-27.781 -32.9259,-11.318 -70.482,-11.318 -41.6719,0 -79.228,13.376 -37.5562,12.862 -69.4532,43.215 -30.3536,29.325 -49.3889,77.685 -18.5208,48.36 -18.5208,117.299 0,72.025 20.0642,120.385 20.5787,48.36 51.4468,76.141 31.3825,28.296 69.9676,40.643 38.5851,11.833 76.1412,11.833 36.0127,0 70.9965,-10.804 35.4983,-10.804 65.3374,-29.325 25.2089,-14.919 46.8166,-31.897 21.6076,-16.977 35.4982,-29.324 h 20.5787 v 183.15 q -28.8102,12.862 -55.048,24.18 -26.2378,11.319 -55.048,19.55 -37.5562,10.804 -70.4821,16.463 -32.9259,5.659 -90.5463,5.659 z"
     style="font-style:normal;font-variant:normal;font-weight:bold;font-stretch:normal;font-size:1053.62963867px;font-family:Verdana;-inkscape-font-specification:'Verdana, Bold';font-variant-ligatures:normal;font-variant-caps:normal;font-variant-numeric:normal;font-feature-settings:normal;text-align:start;writing-mode:lr-tb;text-anchor:start;fill:#ffffff;stroke-width:1592.97509766"
     id="path114" /><path
     d="m 7117.6766,10367.116 q 0,-28.811 -11.8328,-49.389 -11.8327,-20.579 -40.6429,-32.412 -20.0643,-8.231 -46.8166,-9.775 -26.7523,-2.058 -62.2505,-2.058 h -71.511 v 206.302 h 60.7071 q 47.3311,0 79.228,-4.63 31.897,-4.63 53.5047,-21.093 20.5787,-15.949 29.8391,-34.984 9.7749,-19.55 9.7749,-51.961 z m 308.1661,531.445 h -241.2853 l -208.8739,-280.9 h -91.0607 v 280.9 h -196.5267 v -766.043 h 331.3172 q 67.9097,0 116.7841,7.717 48.8744,7.717 91.5752,33.441 43.2153,25.723 68.4242,66.88 25.7234,40.643 25.7234,102.38 0,84.887 -39.614,138.391 -39.0995,53.505 -112.1539,89.003 z"
     style="font-style:normal;font-variant:normal;font-weight:bold;font-stretch:normal;font-size:1053.62963867px;font-family:Verdana;-inkscape-font-specification:'Verdana, Bold';font-variant-ligatures:normal;font-variant-caps:normal;font-variant-numeric:normal;font-feature-settings:normal;text-align:start;writing-mode:lr-tb;text-anchor:start;fill:#ffffff;stroke-width:1592.97509766"
     id="path116" /><path
     d="m 8183.1391,10621.263 q 0,141.993 -86.4305,217.619 -86.4306,75.627 -254.6615,75.627 -168.2309,0 -254.6615,-75.627 -85.916,-75.626 -85.916,-217.105 v -489.259 h 198.5845 v 477.941 q 0,79.742 33.4403,118.842 33.4404,39.099 108.5527,39.099 74.0833,0 108.0382,-37.556 34.4693,-37.556 34.4693,-120.385 v -477.941 h 198.5845 z"
     style="font-style:normal;font-variant:normal;font-weight:bold;font-stretch:normal;font-size:1053.62963867px;font-family:Verdana;-inkscape-font-specification:'Verdana, Bold';font-variant-ligatures:normal;font-variant-caps:normal;font-variant-numeric:normal;font-feature-settings:normal;text-align:start;writing-mode:lr-tb;text-anchor:start;fill:#ffffff;stroke-width:1592.97509766"
     id="path118" /><path
     d="m 9170.9169,10898.561 h -196.5267 v -512.925 l -141.993,332.861 h -136.3339 l -141.9931,-332.861 v 512.925 h -186.2373 v -766.043 h 229.4526 l 172.3466,384.308 171.8322,-384.308 h 229.4526 z"
     style="font-style:normal;font-variant:normal;font-weight:bold;font-stretch:normal;font-size:1053.62963867px;font-family:Verdana;-inkscape-font-specification:'Verdana, Bold';font-variant-ligatures:normal;font-variant-caps:normal;font-variant-numeric:normal;font-feature-settings:normal;text-align:start;writing-mode:lr-tb;text-anchor:start;fill:#ffffff;stroke-width:1592.97509766"
     id="path120" /><path
     d="m 10021.846,10663.963 q 0,55.563 -22.6364,99.293 -22.1221,43.729 -61.2216,72.54 -45.2732,33.954 -99.8067,48.359 -54.0191,14.406 -137.3629,14.406 h -334.4039 v -766.043 h 297.3623 q 92.6041,0 135.3049,6.174 43.2153,6.174 85.4017,27.267 43.7297,22.122 64.8229,59.678 21.6076,37.042 21.6076,84.887 0,55.563 -29.3246,98.263 -29.3247,42.187 -82.8293,65.852 v 4.116 q 75.1123,14.92 118.842,61.736 44.244,46.817 44.244,123.472 z m -253.1178,-314.854 q 0,-19.035 -9.7749,-38.07 -9.2604,-19.036 -33.4404,-28.296 -21.6077,-8.232 -54.0191,-8.746 -31.897,-1.029 -90.0319,-1.029 h -18.5208 v 162.057 h 30.8681 q 46.8165,0 79.7424,-1.543 32.926,-1.544 51.9613,-10.29 26.7523,-11.832 34.9838,-30.353 8.2315,-19.035 8.2315,-43.73 z m 48.3599,311.768 q 0,-36.528 -14.4051,-56.077 -13.8906,-20.065 -47.8455,-29.84 -23.151,-6.688 -63.794,-7.202 -40.6429,-0.515 -84.8871,-0.515 h -43.2153 v 190.868 h 14.4051 q 83.3438,0 119.3565,-0.515 36.0127,-0.514 66.3663,-13.376 30.8681,-12.861 42.1864,-33.955 11.8327,-21.607 11.8327,-49.388 z"
     style="font-style:normal;font-variant:normal;font-weight:bold;font-stretch:normal;font-size:1053.62963867px;font-family:Verdana;-inkscape-font-specification:'Verdana, Bold';font-variant-ligatures:normal;font-variant-caps:normal;font-variant-numeric:normal;font-feature-settings:normal;text-align:start;writing-mode:lr-tb;text-anchor:start;fill:#ffffff;stroke-width:1592.97509766"
     id="path122" /><path
     d="m 10782.229,10657.79 q 0,113.183 -96.205,184.179 -95.691,70.482 -260.321,70.482 -95.176,0 -166.173,-16.463 -70.482,-16.977 -132.218,-42.701 v -183.665 h 21.608 q 61.221,48.875 136.848,75.113 76.141,26.238 146.109,26.238 18.006,0 47.331,-3.087 29.324,-3.087 47.845,-10.29 22.637,-9.26 37.042,-23.151 14.92,-13.89 14.92,-41.157 0,-25.209 -21.608,-43.215 -21.093,-18.521 -62.251,-28.296 -43.215,-10.289 -91.575,-19.035 -47.845,-9.261 -90.032,-23.151 -96.72,-31.383 -139.42,-84.888 -42.187,-54.019 -42.187,-133.761 0,-107.009 95.691,-174.405 96.206,-67.909 246.945,-67.909 75.626,0 149.195,14.919 74.084,14.405 128.103,36.527 v 176.463 h -21.094 q -46.302,-37.042 -113.697,-61.736 -66.881,-25.209 -136.848,-25.209 -24.695,0 -49.389,3.601 -24.18,3.087 -46.817,12.347 -20.064,7.717 -34.469,23.666 -14.405,15.434 -14.405,35.498 0,30.354 23.151,46.817 23.151,15.948 87.459,29.324 42.187,8.746 80.772,16.978 39.099,8.231 83.858,22.636 87.974,28.81 129.646,78.714 42.186,49.389 42.186,128.617 z"
     style="font-style:normal;font-variant:normal;font-weight:bold;font-stretch:normal;font-size:1053.62963867px;font-family:Verdana;-inkscape-font-specification:'Verdana, Bold';font-variant-ligatures:normal;font-variant-caps:normal;font-variant-numeric:normal;font-feature-settings:normal;text-align:start;writing-mode:lr-tb;text-anchor:start;fill:#ffffff;stroke-width:1592.97509766"
     id="path124" /></g></svg>