<?xml version="1.0" encoding="UTF-8" standalone="no"?>
<svg
   xmlns:ooo="http://xml.openoffice.org/svg/export"
   xmlns:dc="http://purl.org/dc/elements/1.1/"
   xmlns:cc="http://creativecommons.org/ns#"
   xmlns:rdf="http://www.w3.org/1999/02/22-rdf-syntax-ns#"
   xmlns:svg="http://www.w3.org/2000/svg"
   xmlns="http://www.w3.org/2000/svg"
   xmlns:sodipodi="http://sodipodi.sourceforge.net/DTD/sodipodi-0.dtd"
   xmlns:inkscape="http://www.inkscape.org/namespaces/inkscape"
   version="1.2"
   width="50mm"
   height="50mm"
   viewBox="0 0 10160 10160"
   preserveAspectRatio="xMidYMid"
   fill-rule="evenodd"
   stroke-width="28.222"
   stroke-linejoin="round"
   xml:space="preserve"
   id="svg108"
   sodipodi:docname="quetzal-crumbs-fa.svg"
   inkscape:version="0.92.5 (2060ec1f9f, 2020-04-08)"><metadata
   id="metadata112"><rdf:RDF><cc:Work
       rdf:about=""><dc:format>image/svg+xml</dc:format><dc:type
         rdf:resource="http://purl.org/dc/dcmitype/StillImage" /><dc:title></dc:title></cc:Work></rdf:RDF></metadata><sodipodi:namedview
   pagecolor="#ffffff"
   bordercolor="#FFFFFF"
   borderopacity="1"
   objecttolerance="10"
   gridtolerance="10"
   guidetolerance="10"
   inkscape:pageopacity="0"
   inkscape:pageshadow="2"
   inkscape:window-width="1848"
   inkscape:window-height="1016"
   id="namedview110"
   showgrid="false"
   inkscape:zoom="0.61458334"
   inkscape:cx="192"
   inkscape:cy="192"
   inkscape:window-x="72"
   inkscape:window-y="27"
   inkscape:window-maximized="1"
   inkscape:current-layer="svg108" />
 <defs
   class="ClipPathGroup"
   id="defs8">
  <clipPath
   id="presentation_clip_path"
   clipPathUnits="userSpaceOnUse">
   <rect
   x="0"
   y="0"
   width="10160"
   height="10160"
   id="rect2" />
  </clipPath>
  <clipPath
   id="presentation_clip_path_shrink"
   clipPathUnits="userSpaceOnUse">
   <rect
   x="10"
   y="10"
   width="10140"
   height="10140"
   id="rect5" />
  </clipPath>
























































       </defs>
 <defs
   class="TextShapeIndex"
   id="defs12">
  <g
   ooo:slide="id1"
   ooo:id-list="id3 id4 id5 id6 id7 id8 id9"
   id="g10" />
 </defs>
 <defs
   class="EmbeddedBulletChars"
   id="defs44">
  <g
   id="bullet-char-template-57356"
   transform="scale(0.00048828125,-0.00048828125)">
   <path
   d="M 580,1141 L 1163,571 580,0 -4,571 580,1141 Z"
   id="path14" />
  </g>
  <g
   id="bullet-char-template-57354"
   transform="scale(0.00048828125,-0.00048828125)">
   <path
   d="M 8,1128 L 1137,1128 1137,0 8,0 8,1128 Z"
   id="path17" />
  </g>
  <g
   id="bullet-char-template-10146"
   transform="scale(0.00048828125,-0.00048828125)">
   <path
   d="M 174,0 L 602,739 174,1481 1456,739 174,0 Z M 1358,739 L 309,1346 659,739 1358,739 Z"
   id="path20" />
  </g>
  <g
   id="bullet-char-template-10132"
   transform="scale(0.00048828125,-0.00048828125)">
   <path
   d="M 2015,739 L 1276,0 717,0 1260,543 174,543 174,936 1260,936 717,1481 1274,1481 2015,739 Z"
   id="path23" />
  </g>
  <g
   id="bullet-char-template-10007"
   transform="scale(0.00048828125,-0.00048828125)">
   <path
   d="M 0,-2 C -7,14 -16,27 -25,37 L 356,567 C 262,823 215,952 215,954 215,979 228,992 255,992 264,992 276,990 289,987 310,991 331,999 354,1012 L 381,999 492,748 772,1049 836,1024 860,1049 C 881,1039 901,1025 922,1006 886,937 835,863 770,784 769,783 710,716 594,584 L 774,223 C 774,196 753,168 711,139 L 727,119 C 717,90 699,76 672,76 641,76 570,178 457,381 L 164,-76 C 142,-110 111,-127 72,-127 30,-127 9,-110 8,-76 1,-67 -2,-52 -2,-32 -2,-23 -1,-13 0,-2 Z"
   id="path26" />
  </g>
  <g
   id="bullet-char-template-10004"
   transform="scale(0.00048828125,-0.00048828125)">
   <path
   d="M 285,-33 C 182,-33 111,30 74,156 52,228 41,333 41,471 41,549 55,616 82,672 116,743 169,778 240,778 293,778 328,747 346,684 L 369,508 C 377,444 397,411 428,410 L 1163,1116 C 1174,1127 1196,1133 1229,1133 1271,1133 1292,1118 1292,1087 L 1292,965 C 1292,929 1282,901 1262,881 L 442,47 C 390,-6 338,-33 285,-33 Z"
   id="path29" />
  </g>
  <g
   id="bullet-char-template-9679"
   transform="scale(0.00048828125,-0.00048828125)">
   <path
   d="M 813,0 C 632,0 489,54 383,161 276,268 223,411 223,592 223,773 276,916 383,1023 489,1130 632,1184 813,1184 992,1184 1136,1130 1245,1023 1353,916 1407,772 1407,592 1407,412 1353,268 1245,161 1136,54 992,0 813,0 Z"
   id="path32" />
  </g>
  <g
   id="bullet-char-template-8226"
   transform="scale(0.00048828125,-0.00048828125)">
   <path
   d="M 346,457 C 273,457 209,483 155,535 101,586 74,649 74,723 74,796 101,859 155,911 209,963 273,989 346,989 419,989 480,963 531,910 582,859 608,796 608,723 608,648 583,586 532,535 482,483 420,457 346,457 Z"
   id="path35" />
  </g>
  <g
   id="bullet-char-template-8211"
   transform="scale(0.00048828125,-0.00048828125)">
   <path
   d="M -4,459 L 1135,459 1135,606 -4,606 -4,459 Z"
   id="path38" />
  </g>
  <g
   id="bullet-char-template-61548"
   transform="scale(0.00048828125,-0.00048828125)">
   <path
   d="M 173,740 C 173,903 231,1043 346,1159 462,1274 601,1332 765,1332 928,1332 1067,1274 1183,1159 1299,1043 1357,903 1357,740 1357,577 1299,437 1183,322 1067,206 928,148 765,148 601,148 462,206 346,322 231,437 173,577 173,740 Z"
   id="path41" />
  </g>
 </defs>

 <rect
   style="fill:none;stroke:none"
   id="rect51"
   height="7528"
   width="9849"
   y="2512"
   x="234"
   class="BoundingBox" /><path
   style="fill:#FFFFFF;stroke:none"
   inkscape:connector-curvature="0"
   id="path53"
   d="m 8995,3372 c 102,-112 301,-102 441,25 -97,-20 -215,-18 -314,91 -96,106 -90,221 -61,313 147,193 221,427 223,661 3,315 -122,632 -371,853 -104,91 -167,158 -168,231 0,81 79,170 269,308 8,6 11,14 11,22 -5,60 -243,158 -599,120 -434,-36 -590,-130 -589,-260 2,-147 203,-339 437,-545 174,-154 352,-494 348,-753 -2,-89 -24,-168 -76,-227 -45,-51 -708,-192 -602,-432 269,182 352,160 408,75 -213,-308 -435,-442 -444,-611 558,378 354,411 722,298 105,-27 179,58 367,191 -80,-120 -85,-268 -2,-360 z m -3768,232 77,-77 v -104 l 112,-1 76,-73 80,74 h 108 l 1,107 77,74 -78,76 v 104 l -112,1 -76,74 -80,-75 h -108 l -1,-107 z m -776,2395 c -176,-70 -274,-243 -218,-384 37,-94 133,-151 244,-160 521,-615 248,-789 615,-902 -55,295 -81,518 -77,688 134,-33 274,-119 442,-428 108,-28 -464,725 -263,865 396,448 614,773 161,1175 -221,194 -258,278 101,539 39,31 -32,89 -179,124 -103,24 -244,36 -410,18 -921,-76 -593,-416 -152,-805 233,-207 248,-497 45,-728 -40,-45 -246,-197 -283,-443 -34,28 -63,67 -84,120 -54,137 -4,244 58,321 z M 1110,2950 c -133,-63 -243,-21 -325,35 82,-170 263,-256 400,-190 114,55 165,199 131,344 8,-9 21,-21 40,-38 309,-62 382,-269 538,-588 129,118 4,485 -124,768 282,-112 294,87 519,-201 -74,273 -522,571 -567,622 -199,226 30,751 258,967 5,4 9,8 13,12 78,69 153,136 217,201 302,301 391,542 -368,605 -308,33 -528,-37 -584,-95 -19,-18 -21,-35 -5,-48 310,-225 325,-319 181,-465 -22,-23 -49,-47 -79,-73 -18,-16 -35,-32 -51,-49 -405,-409 -431,-1092 -51,-1523 15,-17 24,-29 29,-38 -11,-91 -52,-189 -172,-246 z m 7749,3084 71,-29 -15,9 -28,13 -33,12 -39,11 -23,5 z m -1164,1884 363,203 -580,137 z m -382,-116 203,66 -273,136 z m 2289,53 364,-17 -98,296 z m -936,418 585,-172 -27,437 z m 763,-128 204,66 -273,136 z m 114,-2052 9,13 -191,340 h -1 l -50,98 -1,1 -28,62 -8,20 v 1 l -4,14 h -1 l -1,5 v 1 l -1,4 v 1 3 1 l 1,2 v 1 1 1 l 1,1 v 1 h 1 v 1 l 1,1 v 1 h 1 1 v 1 h 1 1 v 1 h 1 1 v 1 h 1 1 1 1 1 v -1 h 1 1 l 1,-1 h 1 1 v -1 h 1 l -5,-8 -1,-2 h 4 v -2 -1 -3 l 2,-4 4,-14 7,-19 29,-61 50,-99 56,-99 51,53 43,49 30,42 21,33 7,13 5,12 3,10 3,7 2,6 v 4 2 h 10 9 v -1 -1 -2 -1 l -1,-5 h -1 l -1,-7 -3,-8 v -1 l -4,-10 -5,-12 v -1 l -8,-14 -21,-34 v -1 l -31,-42 -43,-50 -1,-1 -56,-57 122,-216 56,76 55,88 37,71 22,54 7,21 5,17 2,13 2,9 v 5 2 l 10,-1 h 9 v -2 l -1,-6 v -1 l -1,-9 v -1 l -3,-13 v -1 l -5,-17 v -1 l -7,-21 v -1 l -23,-55 -38,-72 v -1 l -55,-88 -1,-1 -77,-106 h -1 l -97,-116 -7,-160 45,-38 63,-60 59,-65 53,-67 50,-72 43,-73 38,-76 28,-67 48,93 2,4 44,103 2,4 39,106 2,4 33,108 1,4 28,111 1,4 21,112 1,4 15,114 v 4 l 10,115 v 5 l 3,116 -75,2 75,2 -3,116 v 4 l -10,116 v 4 l -15,114 -1,4 -21,112 -1,5 -28,110 -1,4 -33,108 -2,5 -39,105 -2,4 -44,103 -2,4 -50,99 -2,3 -1,1 -55,94 -2,4 -60,89 -3,4 -65,85 -3,3 -69,79 -3,4 -73,73 -4,4 -77,67 -4,4 -81,61 -4,3 -84,55 -4,2 -1,1 -87,48 -4,2 -89,41 -5,2 -91,34 -6,2 -92,26 h -1 l -1,1 h -2 -1 l -94,19 -1,1 h -1 -2 -1 l -95,11 -2,1 h -1 -2 -1 l -95,4 h -3 -3 l -95,-4 h -2 -1 -2 l -1,-1 -95,-11 h -1 -2 -1 l -1,-1 -94,-19 h -1 -2 l -1,-1 h -1 l -92,-26 -6,-2 -90,-34 -6,-2 -88,-41 -5,-2 -87,-48 -1,-1 -4,-2 -83,-55 -5,-3 -81,-61 -4,-4 -77,-67 -4,-4 -73,-73 -3,-4 -69,-79 -3,-3 -65,-85 -3,-4 -60,-89 -2,-4 -55,-94 -1,-1 -1,-3 -51,-99 -1,-4 -45,-103 -2,-4 -39,-105 -2,-5 -33,-108 -1,-4 -27,-110 -1,-5 -22,-112 -1,-4 -15,-114 v -4 l -10,-116 v -4 l -3,-116 v -2 -2 l 3,-116 v -5 l 10,-115 v -4 l 15,-114 1,-4 22,-112 1,-4 27,-111 1,-4 33,-108 2,-4 39,-106 2,-4 34,-79 11,22 44,73 49,72 54,67 49,54 24,228 -36,59 -29,56 -21,46 v 1 l -14,37 v 1 l -9,29 v 1 l -4,20 v 1 l -2,12 v 1 4 h 9 l 9,1 1,-4 1,-12 4,-19 9,-28 13,-38 21,-45 29,-55 32,-55 153,-76 20,16 76,48 78,44 82,40 55,22 30,211 -98,118 -78,106 v 1 l -56,88 v 1 l -37,71 v 1 h -1 l -22,55 -1,1 -6,21 -1,1 -4,17 -1,1 -2,13 -2,10 v 6 1 2 h 9 9 v -1 l 1,-5 1,-10 3,-12 4,-17 7,-21 22,-54 37,-71 51,-80 95,174 29,58 17,38 5,12 3,9 1,5 1,2 v 1 1 h 3 3 l 1,1 v 1 l -2,9 v 1 h 1 1 1 1 l 1,-1 h 1 1 l 1,-1 1,-1 h 1 v -1 h 1 v -1 -1 h 1 v -1 -1 l 1,-1 v -1 -1 -1 -1 -1 -2 l -1,-3 v -1 l -1,-6 v -1 l -3,-9 h -1 l -5,-14 -17,-38 -29,-58 -100,-184 70,-96 103,-123 155,-130 45,141 4,-4 151,295 45,95 27,61 12,36 2,10 1,6 v 1 l 5,2 h 1 v 1 1 l -2,9 h 1 1 1 1 1 1 1 l 1,-1 h 1 v -1 h 1 v -1 h 1 v -1 h 1 v -1 l 1,-1 v -1 -1 h 1 v -1 -2 -1 -2 -1 -1 l -1,-7 v -1 l -2,-10 v -1 l -13,-37 v -1 l -27,-62 -45,-95 v -1 l -155,-301 97,-114 20,3 92,8 93,2 92,-2 92,-8 91,-14 90,-19 88,-24 86,-29 84,-34 82,-40 79,-44 32,-21 129,73 z m 9,13 v -1 z m -4293,1429 71,-29 -15,9 -28,13 -33,12 -39,11 -23,5 z m -1164,1884 363,203 -580,137 z m -382,-116 203,66 -273,136 z m 2289,53 364,-17 -98,296 z m -936,418 585,-172 -27,437 z m 763,-128 204,66 -273,136 z m 114,-2052 9,13 -191,340 h -1 l -50,98 -1,1 -28,62 -8,20 v 1 l -4,14 h -1 l -1,5 v 1 l -1,4 v 1 3 1 l 1,2 v 1 1 1 l 1,1 v 1 h 1 v 1 l 1,1 v 1 h 1 1 v 1 h 1 1 v 1 h 1 1 v 1 h 1 1 1 1 1 v -1 h 1 1 l 1,-1 h 1 1 v -1 h 1 l -5,-8 -1,-2 h 4 v -2 -1 -3 l 2,-4 4,-14 7,-19 29,-61 50,-99 56,-99 51,53 43,49 30,42 21,33 7,13 5,12 3,10 3,7 2,6 v 4 2 h 10 9 v -1 -1 -2 -1 l -1,-5 h -1 l -1,-7 -3,-8 v -1 l -4,-10 -5,-12 v -1 l -8,-14 -21,-34 v -1 l -31,-42 -43,-50 -1,-1 -56,-57 122,-216 56,76 55,88 37,71 22,54 7,21 5,17 2,13 2,9 v 5 2 l 10,-1 h 9 v -2 l -1,-6 v -1 l -1,-9 v -1 l -3,-13 v -1 l -5,-17 v -1 l -7,-21 v -1 l -23,-55 -38,-72 v -1 l -55,-88 -1,-1 -77,-106 h -1 l -97,-116 -7,-160 45,-38 63,-60 59,-65 53,-67 50,-72 43,-73 38,-76 28,-67 48,93 2,4 44,103 2,4 39,106 2,4 33,108 1,4 28,111 1,4 21,112 1,4 15,114 v 4 l 10,115 v 5 l 3,116 -75,2 75,2 -3,116 v 4 l -10,116 v 4 l -15,114 -1,4 -21,112 -1,5 -28,110 -1,4 -33,108 -2,5 -39,105 -2,4 -44,103 -2,4 -50,99 -2,3 -1,1 -55,94 -2,4 -60,89 -3,4 -65,85 -3,3 -69,79 -3,4 -73,73 -4,4 -77,67 -4,4 -81,61 -4,3 -84,55 -4,2 -1,1 -87,48 -4,2 -89,41 -5,2 -91,34 -6,2 -92,26 h -1 l -1,1 h -2 -1 l -94,19 -1,1 h -1 -2 -1 l -95,11 -2,1 h -1 -2 -1 l -95,4 h -3 -3 l -95,-4 h -2 -1 -2 l -1,-1 -95,-11 h -1 -2 -1 l -1,-1 -94,-19 h -1 -2 l -1,-1 h -1 l -92,-26 -6,-2 -90,-34 -6,-2 -88,-41 -5,-2 -87,-48 -1,-1 -4,-2 -83,-55 -5,-3 -81,-61 -4,-4 -77,-67 -4,-4 -73,-73 -3,-4 -69,-79 -3,-3 -65,-85 -3,-4 -60,-89 -2,-4 -55,-94 -1,-1 -1,-3 -51,-99 -1,-4 -45,-103 -2,-4 -39,-105 -2,-5 -33,-108 -1,-4 -27,-110 -1,-5 -22,-112 -1,-4 -15,-114 v -4 l -10,-116 v -4 l -3,-116 v -2 -2 l 3,-116 v -5 l 10,-115 v -4 l 15,-114 1,-4 22,-112 1,-4 27,-111 1,-4 33,-108 2,-4 39,-106 2,-4 34,-79 11,22 44,73 49,72 54,67 49,54 24,228 -36,59 -29,56 -21,46 v 1 l -14,37 v 1 l -9,29 v 1 l -4,20 v 1 l -2,12 v 1 4 h 9 l 9,1 1,-4 1,-12 4,-19 9,-28 13,-38 21,-45 29,-55 32,-55 153,-76 20,16 76,48 78,44 82,40 55,22 30,211 -98,118 -78,106 v 1 l -56,88 v 1 l -37,71 v 1 h -1 l -22,55 -1,1 -6,21 -1,1 -4,17 -1,1 -2,13 -2,10 v 6 1 2 h 9 9 v -1 l 1,-5 1,-10 3,-12 4,-17 7,-21 22,-54 37,-71 51,-80 95,174 29,58 17,38 5,12 3,9 1,5 1,2 v 1 1 h 3 3 l 1,1 v 1 l -2,9 v 1 h 1 1 1 1 l 1,-1 h 1 1 l 1,-1 1,-1 h 1 v -1 h 1 v -1 -1 h 1 v -1 -1 l 1,-1 v -1 -1 -1 -1 -1 -2 l -1,-3 v -1 l -1,-6 v -1 l -3,-9 h -1 l -5,-14 -17,-38 -29,-58 -100,-184 70,-96 103,-123 155,-130 45,141 4,-4 151,295 45,95 27,61 12,36 2,10 1,6 v 1 l 5,2 h 1 v 1 1 l -2,9 h 1 1 1 1 1 1 1 l 1,-1 h 1 v -1 h 1 v -1 h 1 v -1 h 1 v -1 l 1,-1 v -1 -1 h 1 v -1 -2 -1 -2 -1 -1 l -1,-7 v -1 l -2,-10 v -1 l -13,-37 v -1 l -27,-62 -45,-95 v -1 l -155,-301 97,-114 20,3 92,8 93,2 92,-2 92,-8 91,-14 90,-19 88,-24 86,-29 84,-34 82,-40 79,-44 32,-21 129,73 z m 9,13 v -1 z m -3893,-2071 71,-29 -15,9 -28,13 -33,12 -39,11 -23,5 z m -1164,1884 363,203 -580,137 z m -382,-116 203,66 -273,136 z m 2289,53 364,-17 -98,296 z m -936,418 585,-172 -27,437 z m 763,-128 204,66 -273,136 z m 114,-2052 9,13 -191,340 h -1 l -50,98 -1,1 -28,62 -8,20 v 1 l -4,14 h -1 l -1,5 v 1 l -1,4 v 1 3 1 l 1,2 v 1 1 1 l 1,1 v 1 h 1 v 1 l 1,1 v 1 h 1 1 v 1 h 1 1 v 1 h 1 1 v 1 h 1 1 1 1 1 v -1 h 1 1 l 1,-1 h 1 1 v -1 h 1 l -5,-8 -1,-2 h 4 v -2 -1 -3 l 2,-4 4,-14 7,-19 29,-61 50,-99 56,-99 51,53 43,49 30,42 21,33 7,13 5,12 3,10 3,7 2,6 v 4 2 h 10 9 v -1 -1 -2 -1 l -1,-5 h -1 l -1,-7 -3,-8 v -1 l -4,-10 -5,-12 v -1 l -8,-14 -21,-34 v -1 l -31,-42 -43,-50 -1,-1 -56,-57 122,-216 56,76 55,88 37,71 22,54 7,21 5,17 2,13 2,9 v 5 2 l 10,-1 h 9 v -2 l -1,-6 v -1 l -1,-9 v -1 l -3,-13 v -1 l -5,-17 v -1 l -7,-21 v -1 l -23,-55 -38,-72 v -1 l -55,-88 -1,-1 -77,-106 h -1 l -97,-116 -7,-160 45,-38 63,-60 59,-65 53,-67 50,-72 43,-73 38,-76 28,-67 48,93 2,4 44,103 2,4 39,106 2,4 33,108 1,4 28,111 1,4 21,112 1,4 15,114 v 4 l 10,115 v 5 l 3,116 -75,2 75,2 -3,116 v 4 l -10,116 v 4 l -15,114 -1,4 -21,112 -1,5 -28,110 -1,4 -33,108 -2,5 -39,105 -2,4 -44,103 -2,4 -50,99 -2,3 -1,1 -55,94 -2,4 -60,89 -3,4 -65,85 -3,3 -69,79 -3,4 -73,73 -4,4 -77,67 -4,4 -81,61 -4,3 -84,55 -4,2 -1,1 -87,48 -4,2 -89,41 -5,2 -91,34 -6,2 -92,26 h -1 l -1,1 h -2 -1 l -94,19 -1,1 h -1 -2 -1 l -95,11 -2,1 h -1 -2 -1 l -95,4 h -3 -3 l -95,-4 h -2 -1 -2 l -1,-1 -95,-11 h -1 -2 -1 l -1,-1 -94,-19 h -1 -2 l -1,-1 h -1 l -92,-26 -6,-2 -90,-34 -6,-2 -88,-41 -5,-2 -87,-48 -1,-1 -4,-2 -83,-55 -5,-3 -81,-61 -4,-4 -77,-67 -4,-4 -73,-73 -3,-4 -69,-79 -3,-3 -65,-85 -3,-4 -60,-89 -2,-4 -55,-94 -1,-1 -1,-3 -51,-99 -1,-4 -45,-103 -2,-4 -39,-105 -2,-5 -33,-108 -1,-4 -27,-110 -1,-5 -22,-112 -1,-4 -15,-114 v -4 l -10,-116 v -4 l -3,-116 v -2 -2 l 3,-116 v -5 l 10,-115 v -4 l 15,-114 1,-4 22,-112 1,-4 27,-111 1,-4 33,-108 2,-4 39,-106 2,-4 34,-79 11,22 44,73 49,72 54,67 49,54 24,228 -36,59 -29,56 -21,46 v 1 l -14,37 v 1 l -9,29 v 1 l -4,20 v 1 l -2,12 v 1 4 h 9 l 9,1 1,-4 1,-12 4,-19 9,-28 13,-38 21,-45 29,-55 32,-55 153,-76 20,16 76,48 78,44 82,40 55,22 30,211 -98,118 -78,106 v 1 l -56,88 v 1 l -37,71 v 1 h -1 l -22,55 -1,1 -6,21 -1,1 -4,17 -1,1 -2,13 -2,10 v 6 1 2 h 9 9 v -1 l 1,-5 1,-10 3,-12 4,-17 7,-21 22,-54 37,-71 51,-80 95,174 29,58 17,38 5,12 3,9 1,5 1,2 v 1 1 h 3 3 l 1,1 v 1 l -2,9 v 1 h 1 1 1 1 l 1,-1 h 1 1 l 1,-1 1,-1 h 1 v -1 h 1 v -1 -1 h 1 v -1 -1 l 1,-1 v -1 -1 -1 -1 -1 -2 l -1,-3 v -1 l -1,-6 v -1 l -3,-9 h -1 l -5,-14 -17,-38 -29,-58 -100,-184 70,-96 103,-123 155,-130 45,141 4,-4 151,295 45,95 27,61 12,36 2,10 1,6 v 1 l 5,2 h 1 v 1 1 l -2,9 h 1 1 1 1 1 1 1 l 1,-1 h 1 v -1 h 1 v -1 h 1 v -1 h 1 v -1 l 1,-1 v -1 -1 h 1 v -1 -2 -1 -2 -1 -1 l -1,-7 v -1 l -2,-10 v -1 l -13,-37 v -1 l -27,-62 -45,-95 v -1 l -155,-301 97,-114 20,3 92,8 93,2 92,-2 92,-8 91,-14 90,-19 88,-24 86,-29 84,-34 82,-40 79,-44 32,-21 129,73 z m 9,13 v -1 z" /><rect
   style="fill:none;stroke:none"
   id="rect58"
   height="511"
   width="532"
   y="324"
   x="5261"
   class="BoundingBox" /><path
   style="fill:#FFFFFF;stroke:none"
   inkscape:connector-curvature="0"
   id="path60"
   d="m 5261,579 76,73 1,107 h 108 l 80,75 76,-74 112,-1 V 655 l 78,-76 -77,-74 -1,-107 h -108 l -80,-74 -76,73 -112,1 v 104 z" /><rect
   style="fill:none;stroke:none"
   id="rect65"
   height="511"
   width="532"
   y="724"
   x="7162"
   class="BoundingBox" /><path
   style="fill:#FFFFFF;stroke:none"
   inkscape:connector-curvature="0"
   id="path67"
   d="m 7162,979 76,73 1,107 h 108 l 80,75 76,-74 112,-1 v -104 l 78,-76 -77,-74 -1,-107 h -108 l -80,-74 -76,73 -112,1 v 104 z" /><rect
   style="fill:none;stroke:none"
   id="rect72"
   height="511"
   width="533"
   y="1424"
   x="3561"
   class="BoundingBox" /><path
   style="fill:#FFFFFF;stroke:none"
   inkscape:connector-curvature="0"
   id="path74"
   d="m 3562,1679 76,73 1,107 h 108 l 80,75 76,-74 112,-1 v -104 l 78,-76 -77,-74 -1,-107 h -108 l -80,-74 -76,73 -112,1 v 104 z" /><rect
   style="fill:none;stroke:none"
   id="rect79"
   height="511"
   width="533"
   y="524"
   x="2063"
   class="BoundingBox" /><path
   style="fill:#FFFFFF;stroke:none"
   inkscape:connector-curvature="0"
   id="path81"
   d="m 2064,779 76,73 1,107 h 108 l 80,75 76,-74 112,-1 V 855 l 78,-76 -77,-74 -1,-107 h -108 l -80,-74 -76,73 -112,1 v 104 z" /><rect
   style="fill:none;stroke:none"
   id="rect86"
   height="512"
   width="532"
   y="1823"
   x="2464"
   class="BoundingBox" /><path
   style="fill:#FFFFFF;stroke:none"
   inkscape:connector-curvature="0"
   id="path88"
   d="m 2464,2079 76,73 1,107 h 108 l 80,75 76,-74 112,-1 v -104 l 78,-76 -77,-74 -1,-107 h -108 l -80,-74 -76,73 -112,1 v 104 z" /><rect
   style="fill:none;stroke:none"
   id="rect93"
   height="511"
   width="532"
   y="2024"
   x="5662"
   class="BoundingBox" /><path
   style="fill:#FFFFFF;stroke:none"
   inkscape:connector-curvature="0"
   id="path95"
   d="m 5662,2279 76,73 1,107 h 108 l 80,75 76,-74 112,-1 v -104 l 78,-76 -77,-74 -1,-107 h -108 l -80,-74 -76,73 -112,1 v 104 z" />

<text x="1" y="1">Quetzal-CRUMBS</text>

</svg>
